<?xml version="1.0" encoding="utf-8"?>
<!-- Generator: Adobe Illustrator 23.0.1, SVG Export Plug-In . SVG Version: 6.00 Build 0)  -->
<svg version="1.1" id="Слой_1" xmlns="http://www.w3.org/2000/svg" xmlns:xlink="http://www.w3.org/1999/xlink" x="0px" y="0px"
	 viewBox="0 0 100 150" style="enable-background:new 0 0 100 150;" xml:space="preserve">
<style type="text/css">
	.st0{fill:#FFFFFF;}
</style>
<g id="Слой_6">
	<g id="InnerFrame">
		<path class="st0" d="M91.9,146.3H19.6V57h72.2V146.3z M20.9,145h69.8V58.2H20.9V145z"/>
	</g>
	<g id="Copyright">
		<g>
			<path class="st0" d="M77.2,29.8c-3.7,0-6.8-2.9-6.8-6.4s3.1-6.4,6.8-6.4c3.7,0,6.8,2.9,6.8,6.4C83.9,27,81,29.8,77.2,29.8
				 M77.2,18.3c-3.1,0-5.6,2.3-5.6,5.2s2.5,5.2,5.6,5.2s5.6-2.3,5.6-5.2S80.3,18.3,77.2,18.3"/>
			<path class="st0" d="M77.8,23.3c0.4,0.6,0.9,1.1,1.4,1.9l1.1,1.4c0.2,0.3,0.3,0.4,0.4,0.4c0.1,0,0.1,0.1,0.2,0.1h0.2v0.4
				c-0.3,0-0.6,0-0.9,0c-0.2,0-0.5,0-0.7,0l-2-2.8c-0.4-0.5-0.8-1-1.2-1.4l0.1-0.2c0.2,0,0.4,0,0.5,0c0.7,0,1.1-0.2,1.5-0.5
				c0.4-0.3,0.6-0.8,0.6-1.3c0-0.5-0.2-0.9-0.5-1.1c-0.3-0.3-0.8-0.4-1.3-0.4c-0.4,0-0.8,0.1-1.2,0.2c0,0.6-0.1,1.2-0.1,1.9v2.8
				c0,1.3,0,2.1,0.1,2.3c0.1,0.2,0.3,0.2,0.7,0.2h0.5v0.4c-0.7,0-1.1,0-1.6,0c-0.3,0-1,0-1.8,0v-0.4h0.5c0.3,0,0.5-0.1,0.6-0.2
				c0.1-0.1,0.1-0.9,0.1-2.3v-2.8c0-1.1,0-1.8-0.1-2c-0.1-0.1-0.3-0.2-0.7-0.2h-0.3v-0.4c0.7,0,1.2,0,1.6,0c0.3,0,0.6,0,1.1,0
				c0.6,0,1,0,1.1,0c0.7,0,1.1,0.1,1.5,0.2c0.4,0.1,0.6,0.4,0.8,0.6c0.2,0.3,0.3,0.6,0.3,1c0,0.6-0.2,1.1-0.6,1.4
				C79.1,22.8,78.6,23.1,77.8,23.3"/>
		</g>
	</g>
	<g id="GKS">
		<path class="st0" d="M88.6,142l0.3,0.3c-0.2,0.4-0.4,0.7-0.5,1.1c-0.8,0.4-1.6,0.8-2.4,0.9c-0.8,0.2-1.6,0.3-2.6,0.3
			c-1.8,0-3.3-0.3-4.7-1c-1.2-0.7-2.3-1.5-3-2.8c-0.7-1.1-1.1-2.5-1.1-4c0-2.2,0.8-3.9,2.3-5.4s3.6-2.1,6.4-2.1
			c0.9,0,1.8,0.1,2.7,0.3c0.9,0.2,1.8,0.4,2.7,0.8l0.1,0.2c-0.1,0.4-0.2,0.8-0.3,1.1c-0.1,0.6-0.2,1.3-0.2,2.3h-0.9
			c0-1.1-0.1-1.7-0.1-1.8s-0.2-0.3-0.6-0.6s-0.8-0.5-1.4-0.7c-0.6-0.2-1.2-0.3-1.9-0.3c-1.7,0-3.1,0.5-4,1.5c-1,1.1-1.5,2.5-1.5,4.3
			c0,2,0.6,3.6,1.8,4.9c1.1,1.1,2.6,1.7,4.5,1.7c0.8,0,1.4-0.1,2.1-0.2C87.2,142.6,87.8,142.4,88.6,142 M58,144.2v-0.9
			c0.9-0.1,1.3-0.1,1.4-0.2c0.1,0,0.1-0.1,0.2-0.1c0.1-0.1,0.1-0.3,0.2-0.7c0.1-0.6,0.1-1.6,0.1-3.1v-3.9c0-1.2,0-2.3-0.1-3.2
			c0-0.9-0.1-1.3-0.2-1.5c0-0.1-0.1-0.2-0.2-0.2c-0.2-0.1-0.7-0.1-1.5-0.2v-0.9c1.2,0.1,2.4,0.1,3.3,0.1c1.1,0,2.3,0,3.3-0.1v0.9
			c-0.9,0.1-1.4,0.1-1.5,0.2s-0.2,0.3-0.3,0.7c0,0.5-0.1,2.2-0.1,5.3h0.2c0.7-0.6,1.7-1.5,3.1-2.9c1.3-1.3,2.4-2.5,3.1-3.3v-0.4
			v-0.4l0.1-0.1c0.8,0.1,1.4,0.1,1.9,0.1c0.6,0,1.2,0,1.9-0.1v0.9l-0.6,0.1c-0.5,0.1-0.8,0.1-1,0.2c-0.3,0.1-0.7,0.4-1.1,0.8
			c-0.7,0.6-1.6,1.3-2.7,2.4l-1.9,1.7l1,1.1c1.1,1.4,2.5,3,4.1,4.8c1,1.1,1.4,1.6,1.6,1.7c0.1,0.1,0.5,0.1,1,0.2v0.9h-0.6l-1.9-0.1
			c-0.5,0-1.1,0-1.9,0.1c-0.6-0.8-1.5-1.9-2.9-3.5c-1.1-1.2-2-2.3-2.9-3.3c-0.1-0.1-0.2-0.2-0.3-0.2h-0.1c-0.1,0-0.2,0-0.2,0.1
			c0,0.1,0,0.3,0,0.9v3.2c0,1,0.1,1.4,0.1,1.6c0,0.1,0.1,0.2,0.2,0.2c0.1,0.1,0.7,0.1,1.5,0.2v0.9c-1.1-0.1-2.2-0.1-3.4-0.1
			C60.7,144.2,59.5,144.2,58,144.2 M46,144.2v-0.9c0.4,0,0.8,0,1.1-0.1c0.3,0,0.5-0.1,0.5-0.2c0.1-0.1,0.1-0.2,0.1-0.3
			s0.1-0.7,0.1-1.7c0-1.1,0.1-2.1,0.1-3.4c0-2.2,0-3.9-0.1-5.1c0-1.1-0.1-1.8-0.3-1.9c-0.1-0.1-0.7-0.2-1.5-0.3v-0.9
			c1.1,0.1,2.2,0.1,3.3,0.1c1.2,0,2.6,0,4-0.1c1,0,1.7-0.1,2.5-0.1c0.4,0,0.8,0,1.1,0l0.1,0.2c-0.2,0.9-0.3,1.9-0.3,3.2h-0.9
			c-0.1-1-0.1-1.5-0.2-1.7c0-0.1-0.3-0.3-0.8-0.3c-0.5-0.1-1.1-0.1-1.9-0.1s-1.4,0-2,0.1c-0.1,1.4-0.2,3.3-0.2,5.6
			c0,1,0,2.2,0.1,3.9c0,1.6,0.1,2.6,0.2,2.7c0.1,0.2,0.2,0.3,0.3,0.3c0.1,0.1,0.7,0.1,1.7,0.2v0.9c-1.1-0.1-2.1-0.1-3.2-0.1
			C49,144.2,47.8,144.2,46,144.2"/>
	</g>
	<g id="Branch">
		<g>
			<path class="st0" d="M27.8,136.5l-2-1.4c12.6-17.8,22.6-41.1,24.3-56.7c0.9-7.8,0.3-13.1-0.2-17.9c-0.5-5-1-9.3,0.4-14.9l2.4,0.6
				c-1.2,5.3-0.9,9.4-0.4,14.2s1.1,10.2,0.2,18.4C50.8,94.7,40.7,118.4,27.8,136.5"/>
			<path class="st0" d="M38.7,130.4c-13.6-5.7-25-13-33-20.9l1.7-1.7c7.8,7.7,18.9,14.7,32.2,20.4L38.7,130.4z"/>
			<path class="st0" d="M54.2,118.7c-0.9,0-1.7,0-2.5-0.1c-5-0.5-8.7-2.5-11.1-5.7l-0.8-1.1l1.2-0.7c2.3-1.2,4.8-2.6,7.3-3.7
				c0.1-1.9,1-3.6,2.4-5.2c5.5-5.3,20.2-7.2,46.4-6l2.9,0.1l-2.1,2C85,110.3,66.8,118.7,54.2,118.7 M43.4,112.5
				c2,2.1,4.8,3.3,8.4,3.7c11.3,1.1,28.9-6.4,42.1-17.7c-23.1-0.9-37,1-41.6,5.5c-0.7,0.7-1.1,1.3-1.4,2.1c5.5-2.3,11.1-4,16.5-3.9
				v2.4C59.6,104.5,50.6,108.6,43.4,112.5"/>
			<path class="st0" d="M54.3,97.1L54.3,97.1c-1.8,0-3.6-0.1-5.4-0.4l-2-0.3l1.1-1.6c8.1-11.6,18.2-17.2,30.9-17.2
				c3.8,0,7.9,0.6,12.2,1.6l2.4,0.6l-1.9,1.5C78.5,91.9,66.2,97.1,54.3,97.1 M51.3,94.5c11.8,1,23.7-3.5,36.8-13.6
				c-3.3-0.7-6.3-1-9.2-1C67.8,80,58.7,84.8,51.3,94.5"/>
			<path class="st0" d="M46.7,111.3l-5.8-0.1C24.3,111,11,102.2,0,84.3L2.1,83c9,14.6,19.5,23,32.2,25.2
				c-18-9.5-28.7-21.7-33.3-38.4l2.4-0.7c4.9,17.6,16.9,30.2,38,39.7L46.7,111.3z"/>
			<path class="st0" d="M35.8,103.4C31.9,86.1,19.9,77.9,8.7,71.9l1.1-2.2c11,5.7,24.1,14.7,28.3,33L35.8,103.4z"/>
			<path class="st0" d="M50,92.2l-2.4-1.5c-16.8-10.8-27.9-27-32.8-48.1L14.2,40l2.4,1.2C41.1,54,46.1,71.4,49.5,89.4L50,92.2z
				 M17.8,44.7C22.6,62.8,32.2,77.1,46.4,87C43.3,71.3,38.1,56.2,17.8,44.7"/>
			<path class="st0" d="M52.1,76.2l0.7-2.5C58.1,54,71,40.4,91.2,33.1l2.7-1l-1.1,2.6c-9.1,20.2-21.2,33-38.4,40.4L52.1,76.2z
				 M89.3,36.5c-16.9,6.9-28.2,18.8-33.4,35.4C70.3,65,81.1,53.7,89.3,36.5"/>
			<path class="st0" d="M54.2,75.3l-0.5-2.4C75.9,68.2,88.7,58.3,95,41c-14.9,5.1-25.8,10.3-23.3,22.3l-2.4,0.5
				C66.1,48.1,83.1,42.5,96.7,38l2.3-0.8l-0.8,2.3C90,65,69.2,72.1,54.2,75.3"/>
			<path class="st0" d="M52.2,68.3l-1-2.2C43,46.7,43.7,26.6,53.7,2.9l1.1-2.7L56,2.9c9.6,23.5,8.7,44.3-2.6,63.3L52.2,68.3z
				 M54.8,6.7c-8.3,21.1-9.1,38.7-2.3,56.2C61.8,45.9,62.6,27.5,54.8,6.7"/>
		</g>
	</g>
	<g id="OuterFrame">
		<path class="st0" d="M95.3,149.7H16.2V53.6h79.1V149.7z M17.4,148.5h76.7V54.7H17.4V148.5L17.4,148.5z"/>
	</g>
</g>
</svg>
